<svg xmlns="http://www.w3.org/2000/svg" width="844.699" height="844.699" viewBox="0 0 633.524 633.524"><defs><clipPath id="a"><path d="M0 0h633.523v633.523H0zm0 0"/></clipPath><clipPath id="b"><path d="M0 0h633.523v633.523H0zm0 0"/></clipPath><clipPath id="c"><path d="M0 0h633.523v633.523H0zm0 0"/></clipPath></defs><g clip-path="url(#a)"><path d="M22.172 316.762L169.469 61.64h294.59l147.293 255.12-147.293 255.122h-294.59zm0 0" fill="none" stroke-width="35.866" stroke="#fff" stroke-miterlimit="10"/></g><path d="M22.172 316.762L169.469 61.64h294.59l147.293 255.12-147.293 255.122h-294.59zm0 0" fill="#ffa000"/><g clip-path="url(#b)"><path d="M22.172 316.762L169.469 61.64h294.59l147.293 255.12-147.293 255.122h-294.59zm0 0" fill="none" stroke-width="11.955" stroke="#000" stroke-miterlimit="10"/></g><path d="M169.469 277.293c0 105.234 56.16 202.508 147.293 255.125 91.133-52.617 147.297-149.89 147.297-255.125v-98.195L316.762 130l-147.293 49.098zm0 0" fill="#6f6f6f"/><g clip-path="url(#c)"><path d="M169.469 277.293c0 105.234 56.16 202.508 147.293 255.125 91.133-52.617 147.297-149.89 147.297-255.125v-98.195L316.762 130l-147.293 49.098zm0 0" fill="none" stroke-width="11.955" stroke="#000" stroke-miterlimit="10"/></g></svg>